<?xml version="1.0" encoding="UTF-8"?>
<!DOCTYPE svg PUBLIC "-//W3C//DTD SVG 1.0//EN" "http://www.w3.org/TR/2001/REC-SVG-20010904/DTD/svg10.dtd">
<!-- Creator: CorelDRAW 2021 (64-Bit) -->
<svg xmlns="http://www.w3.org/2000/svg" xml:space="preserve" width="98.6656mm" height="98.6734mm" version="1.0" style="shape-rendering:geometricPrecision; text-rendering:geometricPrecision; image-rendering:optimizeQuality; fill-rule:evenodd; clip-rule:evenodd"
viewBox="0 0 1652.91 1653.05"
 xmlns:xlink="http://www.w3.org/1999/xlink"
 xmlns:xodm="http://www.corel.com/coreldraw/odm/2003">
 <defs>
  <style type="text/css">
   <![CDATA[
    .str0 {stroke:black;stroke-width:2.84;stroke-miterlimit:22.9256}
    .fil6 {fill:#ED8E05}
    .fil1 {fill:#F6A201}
    .fil2 {fill:#FAC904}
    .fil5 {fill:#FEBA29}
    .fil3 {fill:#FEDD5D}
    .fil4 {fill:#FFDD5B}
    .fil0 {fill:white}
   ]]>
  </style>
 </defs>
 <g id="Capa_x0020_1">
  <metadata id="CorelCorpID_0Corel-Layer"/>
  <ellipse class="fil0 str0" transform="matrix(0.00724638 0.971118 -0.971118 0.00724638 826.529 820.197)" rx="826.44" ry="832.21"/>
  <g id="_2948526055968">
   <path class="fil1" d="M1131.63 526.13l34.73 58.42c-16.01,34.21 -99.26,112.71 -133.44,131.87 -82.87,-28.46 -87.55,-109.89 -239.21,-84.43 -84.15,14.13 -148.78,75.59 -164.48,158.99l6.17 25.63c52.37,-102.64 197.64,-187.79 294.03,-102.89 -22.96,73.21 -229.11,190.9 -239.75,277.6 63.4,47.52 123.89,60.62 203.07,42.05 81.26,-19.06 103.42,-71.72 151.94,-93.07 44.47,24.42 125.4,86.16 141.41,132.58l29.91 12.18c-20.95,98.57 -226.7,200.77 -321.11,213.35l-7.52 42.91 -124.63 -3.71 -12.25 -86.63c-85.77,-38.6 -130.09,-30.59 -213.15,-100.14 -53.15,-44.53 -101.03,-121.6 -111.89,-191.49 -35.35,74.91 40.65,135 59.01,202.21 -27.86,47.08 -84.65,76.58 -106.39,128.09 126.61,88.61 182.71,145.27 347.79,169.94 150,22.41 299.87,-4.54 429.37,-83.17 227.53,-138.14 385.26,-462.14 287.87,-720.06l-14.44 9.85c-38.37,-82.5 -104.39,-213.39 -187.78,-253.68l-109.26 113.59z"/>
   <path class="fil2" d="M1286.32 372.5c65.79,110.04 117.52,143.13 156.79,283.87 97.39,257.92 -60.33,581.91 -287.87,720.06 -129.5,78.63 -279.37,105.58 -429.37,83.17 -165.08,-24.67 -221.18,-81.32 -347.79,-169.94l-15.36 2.82c-37.39,36.81 -90.81,74.46 -108.69,124.58 284.37,329.27 848.78,299.19 1151.66,1.57 316.1,-310.64 333.88,-831.82 25.54,-1154.15 -59.69,-2.84 -110.98,59.84 -144.92,108.02z"/>
   <path class="fil3" d="M254.04 1417.05c17.87,-50.12 71.3,-87.76 108.69,-124.58 -8.92,-34.16 -107.35,-168.36 -137.98,-245.95 -33.95,-85.96 -68.27,-260.26 -24.71,-341.68 28.01,-216.64 213.02,-411.25 414.93,-482.5 123.4,-43.55 271.24,-47.74 396.29,-8.71 150.33,46.9 162.21,93.88 275.05,158.86 33.94,-48.18 85.23,-110.86 144.92,-108.02 -326.37,-335.44 -846.33,-359.49 -1184.53,-27.98 -319.48,313.16 -340.77,884.44 7.33,1180.55z"/>
   <path class="fil4" d="M425.46 959.36c10.86,69.89 58.73,146.96 111.89,191.49 83.06,69.55 127.38,61.54 213.15,100.14l12.25 86.63 124.63 3.71 7.52 -42.91 5.67 -46.51c162.59,-74.38 150.76,-47.14 285.53,-179.03 -16.01,-46.41 -96.94,-108.15 -141.41,-132.58 -48.52,21.35 -70.68,74.01 -151.94,93.07 -79.18,18.57 -139.67,5.47 -203.07,-42.05 -53.21,-38.54 -86.71,-138.78 -60.46,-200.34 15.7,-83.4 80.33,-144.87 164.48,-158.99 151.67,-25.46 156.34,55.97 239.21,84.43 34.17,-19.16 117.42,-97.65 133.44,-131.87l-34.73 -58.42c-52.18,-27.84 -83.92,-59.4 -144.54,-79.96 -144.9,-49.13 -56.43,-4.62 -102.53,-116.15 -38.29,-14.17 -78.69,-13.99 -116.97,0.19 -20.37,47.3 3.75,68.95 -30.77,94.77 -38.69,28.94 -111.72,-3.91 -239.65,142.98 -100.67,115.62 -109.01,247.42 -71.7,391.4z"/>
   <path class="fil5" d="M200.04 704.85c-43.56,81.42 -9.24,255.72 24.71,341.68 30.63,77.59 129.06,211.79 137.98,245.95l15.36 -2.82c21.74,-51.51 78.53,-81.01 106.39,-128.09 -18.35,-67.21 -94.36,-127.3 -59.01,-202.21 -37.32,-143.98 -28.98,-275.78 71.7,-391.4 127.93,-146.89 200.96,-114.05 239.65,-142.98 34.51,-25.82 10.39,-47.47 30.77,-94.77 38.29,-14.18 78.68,-14.36 116.97,-0.19 46.1,111.53 -42.36,67.02 102.53,116.15 60.62,20.55 92.36,52.11 144.54,79.96l109.26 -113.59c-131.37,-162.33 -440.82,-185.12 -628.46,-123.07 -219.11,72.45 -322.24,224.31 -403.42,426.36l-8.97 -10.98z"/>
   <path class="fil6" d="M200.04 704.85l8.97 10.98c81.17,-202.06 184.31,-353.92 403.42,-426.36 187.64,-62.04 497.09,-39.26 628.46,123.07 83.39,40.29 149.41,171.18 187.78,253.68l14.44 -9.85c-39.27,-140.74 -91.01,-173.83 -156.79,-283.87 -112.84,-64.98 -124.73,-111.95 -275.05,-158.86 -125.06,-39.03 -272.89,-34.84 -396.29,8.71 -201.91,71.25 -386.93,265.86 -414.93,482.5z"/>
   <path class="fil5" d="M629.23 790.98c-26.25,61.55 7.25,161.8 60.46,200.34 10.64,-86.7 216.78,-204.38 239.75,-277.6 -96.39,-84.91 -241.66,0.25 -294.03,102.89l-6.17 -25.63z"/>
   <path class="fil6" d="M894.9 1298.41c94.41,-12.58 300.16,-114.78 321.11,-213.35l-29.91 -12.18c-134.76,131.89 -122.93,104.65 -285.53,179.03l-5.67 46.51z"/>
  </g>
 </g>
</svg>
